<svg xmlns="http://www.w3.org/2000/svg" viewBox="0 0 121.96 152.17"><defs><style>.cls-1{fill:#fff;}</style></defs><title>Asset 1</title><g id="Layer_2" data-name="Layer 2"><g id="Layer_1-2" data-name="Layer 1"><path d="M83.84,31.54c-3.29,1.81-6.64,3.54-9.85,5.51a3,3,0,0,0-.91,2.56c1,5.5-1.65,8.19-6.38,10.72s-8.53,3.56-12.76-.24a7.39,7.39,0,0,0-2.59-1.46c-4.47-1.42-5.26-4.61-4.25-9.12l14.68,7.41c0-3.77-.09-6.81,0-9.85a3.14,3.14,0,0,1,1.24-2.32c11.64-6.06,23.33-12,35-18a3,3,0,0,1,.77-.06c.06.74.18,1.5.18,2.25,0,17.94.07,35.88,0,53.82a4,4,0,0,1-1.58,2.64,28.21,28.21,0,0,1-4.34,2.33V26.6c-2.21.29-2.84,1.34-2.83,3.32,0,15-.13,30.08.08,45.12,0,3.4-.85,5.45-4,6.57a16.94,16.94,0,0,0-2,1.13V72.31c-3.49,1.81-6.52,3.33-9.51,5-4.61,2.49-9.17,5.1-13.82,7.54a3.2,3.2,0,0,1-2.59,0Q49,79.72,39.71,74.4a3,3,0,0,1-1.43-2c-.09-9.12-.06-18.24-.06-27.73,1.41.76,2.56,1.42,3.74,2a3.4,3.4,0,0,1,2.14,3.6c-.15,5.62,0,11.24-.1,16.86A3.66,3.66,0,0,0,46.2,71c4,2,7.91,4.39,12,6.36a4.69,4.69,0,0,0,3.69-.09q10.25-5.34,20.27-11a4.05,4.05,0,0,0,2-2.74c.16-10.42.13-20.84.14-31.26C84.26,32.08,84.09,31.94,83.84,31.54Z"/><path d="M0,103.72c3.15,0,6.3-.08,9.44.07.58,0,1.27.85,1.64,1.46,2.1,3.47,4.12,7,6.52,11.07,2.14-3.74,4.15-7,5.88-10.39a3.49,3.49,0,0,1,3.79-2.24c2.51.15,5,0,7.77,0V137.1H25.72v-17l-8,10.26L9.53,119.71v17.45H0Z"/><path d="M81.39,77.19c.16.42.2.51.22.59,1.16,5-1.06,7.86-5.64,9.9-5,2.2-9.53,5.22-14.36,7.69a4.31,4.31,0,0,1-3.43,0c-9-4.85-18-9.83-26.86-14.85a3.14,3.14,0,0,1-1.46-2.24c-.14-15.68-.17-31.35-.22-47,0-.15.15-.3.45-.89,4.4,2.44,9,4.6,13,7.5,1.16.83.81,3.77,1.28,6.48l-8.49-4.08a5.91,5.91,0,0,0-.39,1.34c0,10.51,0,21,0,31.54a3.56,3.56,0,0,0,2.13,3.62c7,3.7,13.81,7.58,20.78,11.26a3.86,3.86,0,0,0,3.08-.14c6.06-3.25,12-6.66,18.05-10A14.1,14.1,0,0,1,81.39,77.19Z"/><path d="M122,137.36c-3.52,0-6.77.18-10-.12-.77-.08-1.85-1.67-2-2.67-.44-3.06-2.19-3.82-4.9-3.51a20,20,0,0,1-2.45,0c-5,0-5,0-7,4.7a2.55,2.55,0,0,1-1.61,1.38,33.73,33.73,0,0,1-4.61.08H85.35c1.78-4.67,3.4-9,5.05-13.24,2.27-5.91,4.65-11.78,6.78-17.73.68-1.9,1.63-2.64,3.54-2.35a9.71,9.71,0,0,0,1.08,0c2.32.06,5.17-.67,6.81.41s1.81,4,2.64,6.07q4.88,12.22,9.74,24.45C121.29,135.58,121.56,136.32,122,137.36Zm-18.84-22.45c-1.11,3-2,5.27-2.9,7.75h6.07C105.25,120.11,104.31,117.83,103.12,114.91Z"/><path d="M37.27,120.49c.17-9.18,6.49-15.46,15.41-15.31S68,112,67.82,121.14c-.19,8.2-7.22,15.49-14.87,15.44A16,16,0,0,1,37.27,120.49Zm21-.11c0-3.71-2.44-6.36-5.91-6.4s-5.67,2.73-5.63,6.64c0,3.71,2.33,6.3,5.66,6.37C56,127.07,58.27,124.56,58.27,120.38Z"/><path d="M26.64,76.68a3.33,3.33,0,0,1-.74-.05c-5.3-2.24-5.3-2.24-5.3-8,0-15.13,0-30.27-.05-45.41a3.52,3.52,0,0,1,2.25-3.75c3.91-1.88,7.8-3.85,11.53-6.08,2.3-1.37,4.23-1.64,6.39.09a36.88,36.88,0,0,0,3.91,2.37c-1.92,1.09-3.48,2-5.1,2.89-3.37,1.77-6.72,3.57-10.16,5.18-2.05,1-2.8,2.2-2.78,4.56.13,14.86.06,29.73.05,44.59Z"/><path d="M76.29,104.09h9.33c0,7.91.86,15.85-.22,23.52-1.31,9.36-11.6,12.6-19.36,6.8l3-8.27c.53.36.92.65,1.34.89,3.34,1.86,5.71.52,5.74-3.31,0-5.61,0-11.21,0-16.82C76.16,106,76.24,105.14,76.29,104.09Z"/><path d="M82,10.43C71.69,16,61.59,21.41,51.45,26.79a2.53,2.53,0,0,1-2-.24c-2.78-1.49-5.52-3.07-8.64-4.84C43.15,20.42,45,18.79,47,18.43c1.51-.26,3.42,1,5,1.88s2.79.91,3.89-.84l-5.6-3.23c3-1.56,5.77-3,8.53-4.34a1.82,1.82,0,0,1,1.5.07c2.4,1.54,4.56,1,6.72-.51.87-.63,2-.92,2.82-1.62C73.93,6.33,77.82,7.34,82,10.43Z"/><path d="M53.94,28.68C64.1,23.28,74,18,83.86,12.86a4.46,4.46,0,0,1,3.22,0,47.49,47.49,0,0,1,5.37,2.71c-2.62,1.47-4.82,2.75-7.06,3.94Q73.53,25.73,61.63,31.9A2.09,2.09,0,0,1,60,32C58,31,56.07,29.88,53.94,28.68Z"/><path d="M72.11,5.44C69.3,7.08,66.87,8.63,64.3,9.9a3.15,3.15,0,0,1-2.62-.46,3.77,3.77,0,0,0-4.72,0c-.9.6-2,.91-2.84,1.56-4.53,3.5-8.87,3.66-13-1,4.61-2.61,9.58-5.09,14.17-8.15,3.65-2.42,6.75-2.5,10.26,0A58.73,58.73,0,0,0,72.11,5.44Z"/><path d="M46.81,49.72c3.9,2.15,7.33,3.94,10.64,5.92a4.79,4.79,0,0,0,5.7,0c3-2,6.25-3.53,9.87-5.54A59.26,59.26,0,0,1,73,56.28a3.13,3.13,0,0,1-1.54,1.91c-3.36,1.93-6.77,3.8-10.25,5.52a3.35,3.35,0,0,1-2.65-.09c-3.14-1.6-6.14-3.46-9.27-5.07a4,4,0,0,1-2.46-4.5A37.73,37.73,0,0,0,46.81,49.72Z"/><path d="M73,60.75c0,2.33.11,4.13-.05,5.91a2.72,2.72,0,0,1-1.19,1.83q-5.51,3.18-11.15,6.12a2.37,2.37,0,0,1-1.91-.12c-3.51-1.86-7-3.73-10.41-5.79a3.85,3.85,0,0,1-1.46-2.5,39.46,39.46,0,0,1-.07-5.43c3.56,1.91,6.93,3.52,10.07,5.48a4.83,4.83,0,0,0,5.86,0C65.84,64.35,69.21,62.79,73,60.75Z"/><path d="M58.79,42.08l-28.46-15c2.45-1.26,4.39-2.37,6.43-3.25a3,3,0,0,1,2.25.28c6.07,3.19,12.14,6.4,18.11,9.78a4.42,4.42,0,0,1,1.6,2.92A35.33,35.33,0,0,1,58.79,42.08Z"/><path d="M75.69,66.5c0-8.91,0-17.33.06-25.74a3.43,3.43,0,0,1,1.34-2.28,40.93,40.93,0,0,1,4.57-2.55c0,3.23,0,6.08,0,8.92,0,5-.24,10,0,14.94.15,2.81-.8,4.41-3.29,5.36C77.59,65.46,76.83,65.92,75.69,66.5Z"/><path d="M92.64,152.17l-4.86-5.38c-.08,1.74-.15,3.17-.21,4.59l-.58.54c-.51-.56-1.43-1.1-1.47-1.7-.17-2.41-.07-4.84-.07-7.52,3.25-.34,3.55,3,5.78,4.13v-4C93.31,142.88,93.88,146.7,92.64,152.17Z"/><path d="M28.67,142.68a4.44,4.44,0,0,1,4.49,4.42c0,2.27-2.22,4.69-4.34,4.79s-4.34-2.2-4.38-4.58A4.35,4.35,0,0,1,28.67,142.68Zm3.41,4.5c-1.55-1.08-2.46-2.2-3.24-2.12a3,3,0,0,0-2.06,2.09,3,3,0,0,0,2.07,2.09C29.61,149.34,30.53,148.23,32.08,147.18Z"/><path d="M73.47,147.42a4.3,4.3,0,0,1,4.15-4.68A4.14,4.14,0,0,1,82.13,147a4.76,4.76,0,0,1-4.45,4.86A4.52,4.52,0,0,1,73.47,147.42Zm7.38-.2L78,144.66c-.73.86-1.94,1.66-2,2.59-.08.7,1.19,2.13,1.94,2.2S79.52,148.29,80.85,147.22Z"/><path d="M103.57,143.58c-.54,3.52-3.2-.12-4.47,1.88.8.29,1.54.58,2.28.83,1.61.53,3.11,1.55,2.33,3.25-.49,1.05-2.21,1.89-3.5,2.09s-2.48-.63-3.73-1c0-.33.06-.66.1-1h5.75c-2-2.34-6.77-1.27-5-5.61C98.05,142.09,100.41,142,103.57,143.58Z"/><path d="M14.25,149.71h5.28c-1.8-2.18-6.56-1.9-4.39-5.82,1.36-2.45,3.77-1.22,5.87-.51-.07,3.62-3.2-.16-3.94,2,1.54,1.46,5.84,1.38,3.8,5.34-.91,1.76-3.7,1.59-6.55-.17Z"/><path d="M47.91,142.89a27,27,0,0,0,.08,4.59c.13.68,1.15,1.68,1.75,1.67a2.51,2.51,0,0,0,1.73-1.69,30.63,30.63,0,0,0-.16-5.25c.93.6,2,.93,2,1.34a20.27,20.27,0,0,1-.16,5.67,3.28,3.28,0,0,1-3.86,2.67c-1.87-.25-3.27-1.22-3.43-3.25a25.77,25.77,0,0,1,0-4.89c.06-.54.89-1,1.37-1.49Z"/><path d="M61.43,144.72v6.7c-2.68,1-2.16-.91-2.17-2.27s0-2.88,0-4.19a4.13,4.13,0,0,0-.59-.43l-2.64-1a16.33,16.33,0,0,1,2.77-.84,14.29,14.29,0,0,1,3.52,0,7.52,7.52,0,0,1,1.95.84c-.62.32-1.22.65-1.84,1A7.51,7.51,0,0,1,61.43,144.72Z"/><path d="M38.81,149.53a12.7,12.7,0,0,1,2.87.06c.62.16,1.13.79,1.69,1.22-.53.34-1,.93-1.58,1-1.52.14-3.06.05-4.95.05,0-2.82,0-5.49,0-8.15,0-.36.59-.71.9-1.07.34.42,1,.81,1,1.25C38.88,145.65,38.81,147.44,38.81,149.53Z"/><path d="M69.67,143c0,2.41.06,4.82,0,7.22,0,.49-.69.94-1.06,1.42-.36-.49-1-.95-1-1.45a47.05,47.05,0,0,1,0-6.17c0-.6.85-1.13,1.31-1.69Z"/><path class="cls-1" d="M103.12,114.91c1.19,2.92,2.13,5.2,3.17,7.75h-6.07C101.15,120.18,102,117.89,103.12,114.91Z"/><path class="cls-1" d="M58.27,120.38c0,4.18-2.23,6.69-5.88,6.61-3.33-.07-5.63-2.66-5.66-6.37,0-3.91,2.3-6.67,5.63-6.64S58.28,116.67,58.27,120.38Z"/><path class="cls-1" d="M32.08,147.18c-1.55,1-2.47,2.16-3.23,2.06a3,3,0,0,1-2.07-2.09,3,3,0,0,1,2.06-2.09C29.62,145,30.53,146.1,32.08,147.18Z"/><path class="cls-1" d="M80.85,147.22c-1.33,1.07-2.2,2.29-3,2.23s-2-1.5-1.94-2.2c.11-.93,1.32-1.73,2-2.59Z"/></g></g></svg>