<svg xmlns="http://www.w3.org/2000/svg" viewBox="0 0 559.68 182.84"><defs><style>.cls-1{font-size:78px;font-family:Haettenschweiler;letter-spacing:-0.01em;}</style></defs><title>Asset 2</title><g id="Layer_2" data-name="Layer 2"><g id="Layer_1-2" data-name="Layer 1"><path d="M120.86,60.24C114.58,63.69,108.17,67,102,70.76c-1.17.72-2,3.35-1.72,4.88,1.87,10.52-3.15,15.65-12.19,20.48s-16.28,6.79-24.37-.45a13.23,13.23,0,0,0-4.89-2.78c-8.58-2.69-10.11-8.81-8.18-17.43l28,14.14c0-7.19-.16-13,.11-18.81.08-1.54,1.11-3.78,2.36-4.43C103.42,54.8,125.75,43.43,148.07,32a5.23,5.23,0,0,1,1.48-.11c.11,1.41.33,2.85.34,4.29.06,34.26.14,68.52,0,102.78,0,1.73-1.54,3.91-3,5-2.25,1.75-5.06,2.77-8.29,4.44V50.81c-4.22.55-5.43,2.55-5.42,6.33.1,28.72-.25,57.45.17,86.17.09,6.49-1.63,10.4-7.6,12.55A30.36,30.36,0,0,0,121.9,158V138.09c-6.65,3.46-12.45,6.37-18.14,9.45-8.85,4.79-17.59,9.79-26.5,14.46a5.83,5.83,0,0,1-4.85,0q-18-9.71-35.83-19.89c-1.26-.71-2.71-2.48-2.72-3.77-.18-17.42-.12-34.84-.12-53,2.7,1.44,4.88,2.7,7.15,3.8C43.81,90.56,45.06,92.52,45,96c-.29,10.72,0,21.46-.19,32.18-.07,3.53.89,5.71,4.19,7.37,7.72,3.89,15.12,8.39,22.89,12.16a9,9,0,0,0,7-.17q19.55-10.2,38.71-21.1c1.75-1,3.76-3.44,3.78-5.24.31-19.9.25-39.79.27-59.69C121.67,61.27,121.34,61,120.86,60.24Z"/><path d="M116.19,147.41c.3.82.38,1,.42,1.14,2.21,9.62-2,15-10.78,18.89-9.45,4.2-18.19,10-27.43,14.7a8,8,0,0,1-6.58,0c-17.19-9.25-34.26-18.74-51.26-28.33a6,6,0,0,1-2.79-4.27c-.26-29.94-.33-59.88-.41-89.83,0-.28.28-.57.85-1.7,8.4,4.68,17.14,8.8,24.89,14.33,2.22,1.58,1.55,7.21,2.45,12.37L29.33,76.88a10.54,10.54,0,0,0-.74,2.57c0,20.07.09,40.15,0,60.23,0,3.35,1.05,5.3,4.08,6.91,13.28,7.07,26.37,14.48,39.68,21.5a7.26,7.26,0,0,0,5.87-.26c11.58-6.22,23-12.72,34.49-19.1A25.61,25.61,0,0,1,116.19,147.41Z"/><path d="M11.63,146.44a8.38,8.38,0,0,1-1.41-.09C.08,142.08.09,142.08.09,131.09c0-28.91.06-57.82-.09-86.73,0-4,1.26-6,5.64-7.73a95.42,95.42,0,0,0,19.06-10c5.14-3.49,9.19-4.55,13.82-.86,2,1.59,4.39,2.68,7.46,4.51-3.66,2.09-6.65,3.91-9.74,5.53-6.43,3.37-12.83,6.82-19.41,9.89-3.91,1.83-5.34,4.2-5.3,8.7.24,28.39.11,56.78.1,85.17Z"/><path d="M117.31,19.92C97.66,30.49,78.37,40.89,59,51.15c-.92.49-2.67.12-3.72-.44-5.32-2.84-10.53-5.87-16.5-9.24,4.38-2.47,7.88-5.59,11.81-6.27,2.88-.5,6.53,1.85,9.46,3.58,3.15,1.87,5.34,1.75,7.43-1.59L56.78,31c5.81-3,11-5.71,16.31-8.28a3.3,3.3,0,0,1,2.86.14c4.58,2.93,8.7,2,12.82-1,1.67-1.2,3.85-1.75,5.39-3.08C101.93,12.09,109.36,14,117.31,19.92Z"/><path d="M63.76,54.77C83.17,44.46,102,34.39,120.9,24.56a8.62,8.62,0,0,1,6.15,0c3.2,1.13,6.12,3,10.26,5.18-5,2.8-9.2,5.25-13.49,7.52Q101.17,49.15,78.45,60.93a4.08,4.08,0,0,1-3.2.21C71.47,59.23,67.83,57.06,63.76,54.77Z"/><path d="M98.46,10.4c-5.36,3.12-10,6.09-14.92,8.51-1.25.62-3.7,0-5-.89-3.16-2.2-5.94-2-9,0-1.72,1.13-3.83,1.72-5.44,3-8.66,6.69-16.93,7-24.84-1.89,8.8-5,18.3-9.73,27.06-15.56,7-4.63,12.9-4.77,19.59,0C89.51,6.16,93.74,7.87,98.46,10.4Z"/><path d="M50.14,95c7.45,4.11,14,7.52,20.33,11.3,3.79,2.27,7,2.53,10.88,0,5.74-3.72,11.93-6.75,18.85-10.58,0,4.48.26,8.19-.14,11.83-.15,1.33-1.64,2.91-2.93,3.65-6.43,3.68-12.94,7.25-19.57,10.54a6.51,6.51,0,0,1-5.08-.18c-6-3-11.71-6.61-17.69-9.68-3.69-1.89-5.25-4.46-4.71-8.59A71.17,71.17,0,0,0,50.14,95Z"/><path d="M100.24,116c0,4.44.2,7.88-.11,11.28a5.06,5.06,0,0,1-2.25,3.49q-10.51,6.09-21.3,11.7a4.59,4.59,0,0,1-3.65-.23c-6.7-3.55-13.39-7.13-19.88-11.06a7.38,7.38,0,0,1-2.8-4.78c-.45-3-.12-6.17-.12-10.36,6.79,3.65,13.22,6.71,19.22,10.45,4,2.49,7.12,2.67,11.19.12C86.49,122.89,92.91,119.91,100.24,116Z"/><path d="M73,80.36,18.67,51.68c4.68-2.41,8.39-4.54,12.29-6.2a5.74,5.74,0,0,1,4.29.52c11.6,6.1,23.19,12.22,34.58,18.68,1.6.91,2.73,3.57,3.06,5.58C73.39,73.39,73,76.65,73,80.36Z"/><path d="M105.31,127c0-17-.07-33.09.11-49.16A6.48,6.48,0,0,1,108,73.49c2.44-1.79,5.3-3,8.74-4.88,0,6.18,0,11.62,0,17,0,9.51-.47,19,.06,28.52.29,5.38-1.51,8.42-6.28,10.24C108.93,125,107.48,125.9,105.31,127Z"/><text class="cls-1" transform="translate(170.92 116)">MOJA SOLUTIONS</text></g></g></svg>